<svg id="Capa_1" data-name="Capa 1" xmlns="http://www.w3.org/2000/svg" viewBox="0 0 491.49 472.62"><defs><style>.cls-1{fill:#fbceaa;}.cls-2{fill:#e5bc9b;}.cls-3{fill:#e2ba9a;}.cls-4{fill:#d3af91;}.cls-5{fill:#ecc19f;}.cls-6{fill:#facda9;}.cls-7{fill:#f1c6a3;}.cls-8{fill:#ecc2a0;}.cls-9{fill:#e6bd9c;}.cls-10{fill:#deb797;}.cls-11{fill:#d7b293;}.cls-12{fill:#f9cca8;}.cls-13{fill:#dfb798;}.cls-14{fill:#eac19f;}.cls-15{fill:#e6bd9b;}.cls-16{fill:#dcb596;}.cls-17{fill:#eac09e;}.cls-18{fill:#c09f84;}.cls-19{fill:#b8977f;}.cls-20{fill:#e8be9d;}.cls-21{fill:#121211;}.cls-22,.cls-29{fill:#121212;}.cls-23{fill:#ae927c;}.cls-24{fill:#e2b897;}.cls-25{fill:#fbcea9;}.cls-26{fill:#d8b090;}.cls-27{fill:#f7cba7;}.cls-28{fill:#111;}.cls-29{font-size:20.44px;font-family:ArialRoundedMTBold, Arial Rounded MT Bold;}.cls-30{letter-spacing:-0.01em;}</style></defs><g id="Logo"><path class="cls-1" d="M191.08,17.75c12.18-2.34,24.53.92,36.72-1.12l9,.4c.59.67,2.62-.36,2,1.71-5.17.9-10.51,1-15.54,3.25,6.26.21,12.21,1,17.91,3.83,3.65,1.85,6.87-1.05,10-2.93,1.07-.46,1.21.06,1,.95-2,2-.91,3.23,1.19,3.21,7.5-.06,14.93,1.25,22.1,2.77,3.84.82,7.79-.59,11.33,1.33,12.73,2.92,25.34,6.36,37.42,11.3,5.13,2.1,9.83,5.13,15.63,5,8,2.47,15.14,6.86,22.6,10.52,2.57,1.26,5.1,2.52,8,2.78,1.11.31,2.57,1.29,2.21-1.17l-1-1.09c-.17-.9,0-1.48,1.08-1a6.19,6.19,0,0,1,5.7,2.82c3.23,5,8.13,8.1,12.76,11.53A34.4,34.4,0,0,1,399.56,80c4.23,6.29,10.32,10.49,16,15.2,2.38,2,5.5,3.67,5,7.64-.23,1.93,1.58,1.68,2.95,2.59-.36-2.33-1.47-4.42.07-6.33,1.59-.82,2.41.19,3.19,1.33-.1,4.15,2.74,7,4.58,10.28,5.14,9.16,10.38,18.27,15.44,27.47.6,1.09.28,2.66.48,4,.38,2.47.56,4.77,3.72,5.88,2.19.77,3.09,3.58,3.88,5.74,3.7,10.16,7.41,20.35,7.36,31.39a8.12,8.12,0,0,0,1.37,4.26c2,3.32,3.51,6.21,1.37,10.71-1.54,3.27.93,7.73,2.37,11.49.34,6.6,4.27,12.57,3.39,19.39.91,6.85-.44,13.78.71,20.62a70.47,70.47,0,0,1,2.33,32.38c-1.23,6.82-2.21,13.69-3.74,20.44a254.29,254.29,0,0,1-12.23,37.76c-1.2,3-2.17,6.09-1.93,9.34.29,4-.6,7.37-4.16,9.65l-.84.56c3.47,4.68-3,7-2.58,11-2.4,3.64-2.29,8.11-4.08,12a38.27,38.27,0,0,1-5.41,9.34c-3.43,2-3.59,5.48-3.84,8.79-.78,10.33-.87,9.87-10.73,10.83-5.66.55-12,1.18-15.74,7a394.52,394.52,0,0,0-34.15,24.28c-3.28,5.75-9.27,8.51-14.47,11.59s-10.13,6.48-15.5,9.28c-6.39,3.33-13.05,5.64-19.69,8.16a30.11,30.11,0,0,1-16.91,4.38c-5.57-.15-11.07,1.32-16.47,2.27-7.45,1.31-15.22.75-22.39,3.66-27.42,3.58-54.61,2.78-81.51-4.09-3.92-1-8.06-.88-11.95-2.12-7.45-1.65-14.56-4.38-21.64-7.2-1.5-.6-3.35-.89-3.75-3,3.32-3.34,7.26-1.49,11-1.32A335,335,0,0,0,195,474.82c5.64,1,11.55-.18,17.13,1.74a21.66,21.66,0,0,0,6.49,1.1c3.58.49,7.13-.5,10.7-.27,15.91-.2,31.84.72,47.7-1.44,3.21-.44,6.17-1.88,9.15-1.8-19.94,4.33-40.46,3.08-60.91,3.17a13,13,0,0,1-5.9-1,10.57,10.57,0,0,0-6.48-.88c-8.6-.67-17.15-1.72-25.76-2.28-2.32-.15-4.74-.46-6.71-2a7,7,0,0,0-4.44-1c-8.69-1.21-17.09-3.79-25.42-6.3-4.32-1.31-7.94-4.86-12.11-7.12-8.48-4.6-17.94-7-26-12.59-6.06-4.2-10.56-10-16.15-14.6-2-1.63-3.75-3.42-6.28-4.18-3.71-1.12-7.48-2-10.22-5.18-1.53-1.78-4.2-1-6.16-2-2.06-5.11-6.7-7.23-10.76-10.38a31.21,31.21,0,0,1-9.67-12,15.08,15.08,0,0,0-4.2-6.27c-10.21-8-14.42-19.75-19.78-30.83-3.31-6.85-5.46-14.2-9-21-4.82-15.86-11.46-31.21-12.89-48-.63-7.42-1.31-14.85-1.91-22.27-.11-1.37-.11-2.73,1-3.8,0-6.56,0-13.13.2-19.68.14-3.62.08-7.65,4.85-8.87,1.53,4-.33,8.35,1,12.4l3.31,12.09c0,.16.07.41,0,.49-.92.88-1.9,2-2.35-.36-.69,1.39.76,2.4.6,3.75-.8,6.93,2,13.49,2.29,20.31a1.86,1.86,0,0,0,.83,1.19c-.61.29.48-.23.33.41-.1.4.25.58.21.43-.53-2.24-.23-4.62-1.13-6.8-1.87-4-.23-8.54-2.4-12.62-.9-1.68.52-4.2,2.67-5.42l2.88-.53c2.68-2.16,1.38-4.91,1.09-7.5h0c1.12-4.19-.17-8.52.74-12.73l.25-5.12c-.84-1.58-.1-3.82-2.09-4.91a.85.85,0,0,0-.81-.25c-1.71-1.67.18-4.1-1.23-5.82a27.76,27.76,0,0,0-4.06-2.77c-4.32-2-5.55-5.21-4.78-9.77.38-2.28-.11-4.72-.21-7.08,0-9,.79-17.81,6.12-25.57a5,5,0,0,0,.61-3.41c-.82-4.29,1.68-5.84,5.16-6.6,4.3-1,5.91.95,4.77,5.25-1,3.72-2.05,7.53-.19,11.26A4.2,4.2,0,0,0,28.67,188c1.31.05,1.65-1.13,1.93-2,6.15-19.65,16.2-37.4,26.74-54.9a8.49,8.49,0,0,1-1.93-3c-2.82.4-4.53,2.15-5.92,4.53C46,138.65,39.7,142.4,36.07,148.4c-.68,1.11-1.25.49-1.94-.15-1-1-1.77-1.75-1-3.34,2.47-4.78,2.68-10.46,5.9-15a13.31,13.31,0,0,0,3.5-5.86c.65-2,2.18-2,3.65-2.45,6.3-5,12.1-10.37,13.59-18.84a3.08,3.08,0,0,1,1.36-1.53,3.2,3.2,0,0,0,3.08-1.8c8.16-5.57,12.32-15.11,20.53-20.62a13.92,13.92,0,0,0,2.68-3.51L88,75c2.35-3.11,6.52-1,9.17-3.2.39-.29.48-.93,1.12-.92,4.62-.84,6.09-5.58,9.76-7.94,5.17-3.32,11.22-5.24,15.73-9.58,9-3.76,17.23-9.14,26.53-12.21a91.85,91.85,0,0,1,11.1-4.55,38.72,38.72,0,0,0-7.5,3c-.65.38-2,.84-2.41-.65a5.3,5.3,0,0,1,2.87-3.87c1.24-1.73,3.5-1.76,5.17-3.09-2.41-.9-5,1-7.19-.83.21-1.16,1.19-1.59,2-2.15,7.17-2.18,13.71-6.69,21.39-6.73A26.91,26.91,0,0,0,191.08,17.75Z" transform="translate(-5.45 -13.89)"/><path class="cls-2" d="M47,138.55c.76,3.89-2,5.34-3.14,7.53C43.74,143.3,44.69,141,47,138.55Z" transform="translate(-5.45 -13.89)"/><path class="cls-1" d="M476.31,289.18c-.08-4.5-.2-9,3-13.16,1.15,2.91-1.56,7.2,1.71,7.54,2.92.31,1-4.4,2.21-6.17,4.86-7.07-.14-17.15,7.76-23.25.88,3,1.8,6.23,2.73,9.42-1.15.83-2.57,2.13-.45,2.86,5.35,1.84,3.54,6.19,2.67,9-1.22,4-1.5,8-2.24,11.94-.24,1.32-.22,2.65-1,3.87s-5.95,2.73,0,4.23c.91.22.41,2.9-.53,3.65-2.87,2.29-2.17,5.4-2.45,8.32-2,10.38-7.21,19.68-10.07,29.79a32.8,32.8,0,0,1-10.43,16.65c-.55.47-1.2.9-1.76.38a2.87,2.87,0,0,1-.64-1.75c-.16-1.67,2-4-.5-4.88-1.95-.71-3.74.94-5.05,2.61-.29.36-.87.47-1.28.68a1.28,1.28,0,0,1-.69-1.71c6.6-13.08,8.63-27.77,14.52-41.18C476.26,302.47,475.57,295.51,476.31,289.18Z" transform="translate(-5.45 -13.89)"/><path class="cls-3" d="M364,52.66l-8.38-6.4c5.73-.44,7.84,3,10,6.23A1.23,1.23,0,0,1,364,52.66Z" transform="translate(-5.45 -13.89)"/><path class="cls-4" d="M348.29,42.15c3.26-.27,4.67.76,6.19,3C351.83,45,350.33,44.1,348.29,42.15Z" transform="translate(-5.45 -13.89)"/><path class="cls-5" d="M368.49,54.74l-1.13,1-3.41-3,1.63-.17Z" transform="translate(-5.45 -13.89)"/><path class="cls-6" d="M61.54,101.51l-1,1c-1.86,3.31-3.64,6.71-8.28,6.43,1.61-5.9,4.24-11,9.5-14.68a14.13,14.13,0,0,0,5-6.82L77.89,80c2.68,1.9.72,3.54-.39,5.06-3.85,5.31-7.44,10.87-13.07,14.58A7.23,7.23,0,0,1,61.54,101.51Z" transform="translate(-5.45 -13.89)"/><path class="cls-7" d="M51.29,110.79c-.81,3.77-3.62,6.52-5.08,10-.59-.51-1.78-1.33-1.7-1.5C46.18,116,46.6,111.63,51.29,110.79Z" transform="translate(-5.45 -13.89)"/><path class="cls-8" d="M88.1,69.74,87,71.89c-.79,2.33-2.12,4.13-4.71,4.67-1.74-.23-2.23-1.15-1.51-2.74C82.41,71,85,70,88.1,69.74Z" transform="translate(-5.45 -13.89)"/><path class="cls-9" d="M101.46,61c-1.74,2.82-4.59,2.74-7.39,2.8,1.41-2.27,3.19-4,6-4.21C101.26,59.36,101.89,59.65,101.46,61Z" transform="translate(-5.45 -13.89)"/><path class="cls-10" d="M101.46,61l-1.35-1.41.64-1.78c.74-.53,1.75-1.9,2.35-.64S102.42,59.84,101.46,61Z" transform="translate(-5.45 -13.89)"/><path class="cls-11" d="M269.69,17.67c-6.5-1.11-13.5,1-19.49-3.78L274,16.64C272.81,18.07,271,16.77,269.69,17.67Z" transform="translate(-5.45 -13.89)"/><path class="cls-12" d="M269.69,17.67c1.2-1.3,2.9-.51,4.29-1,1.56.41,3.59-.62,4.61,1.48l.06-.09Z" transform="translate(-5.45 -13.89)"/><path class="cls-13" d="M278.59,18.12c2.13-.82,3.89.07,5.74,1.17-2.47,1.66-4,0-5.68-1.26Z" transform="translate(-5.45 -13.89)"/><path class="cls-14" d="M255.51,22.8c1.43.33,2,1.44,2.5,2.71-2.21,1.57-2.44-1.07-3.62-1.66C254.19,22.89,254.41,22.37,255.51,22.8Z" transform="translate(-5.45 -13.89)"/><path class="cls-15" d="M268.21,25.91c-.39.31-.84.91-1.38,1a1,1,0,0,1-1.18-1.16,1.5,1.5,0,0,1,1-.83A1.12,1.12,0,0,1,268.21,25.91Z" transform="translate(-5.45 -13.89)"/><path class="cls-16" d="M316.53,30.07c2.92-.43,5.64-.2,8.12,2.4-3.75,1.46-6.11.1-8.14-2.39Z" transform="translate(-5.45 -13.89)"/><path class="cls-3" d="M306.17,26.23c0,.92-.88.9-1.47.91a1.42,1.42,0,0,1-1.59-1.54c0-.88.44-1.22,1.25-.92S306.05,25.08,306.17,26.23Z" transform="translate(-5.45 -13.89)"/><path class="cls-17" d="M485.89,252.37c-3.47-2.27-.76-5-.78-7.43,0-.19,1.1-.56,1.69-.56a.8.8,0,0,1,.7,1.34C486.12,247.69,487.82,250.43,485.89,252.37Z" transform="translate(-5.45 -13.89)"/><path class="cls-18" d="M142.53,35.11c-1.15,1.51-2.66,1.37-4.54,1.11C139.34,34.53,141,35.23,142.53,35.11Z" transform="translate(-5.45 -13.89)"/><path class="cls-19" d="M132,39.41c.13,1-.7,1.05-1.25,1.25-.39.13-1.25,0-1.29-.17-.28-1.12.71-1.3,1.43-1.63C131.47,38.6,131.8,38.9,132,39.41Z" transform="translate(-5.45 -13.89)"/><path class="cls-20" d="M84.07,76c1.38-.56,2-2.54,4-2a.92.92,0,0,1,0,1l.13,0C87,76.17,86.33,79,84.07,76Z" transform="translate(-5.45 -13.89)"/><path class="cls-21" d="M192.89,184.58c2.44-30.93,12.43-58.94,33.42-82.15,16.72-18.49,34.79-18.91,51.6-.62,22.25,24.24,34.32,53.44,33.87,86.38-.41,29.82-25.94,54.39-54.2,56.23-32.74,2.13-59.67-20.7-64.18-51.2C193,190.38,193.05,187.46,192.89,184.58Z" transform="translate(-5.45 -13.89)"/><path class="cls-22" d="M124.87,315.84c0,11,0,22.08,0,33.12a8,8,0,0,0,1.92,5.59,8,8,0,0,1,2.23,3.88c1.38,7.93.52,9.05-7.42,9.05-4.76,0-9.52-.15-14.27,0-2.93.12-3.8-.95-3.76-3.81,0-3.65.16-7.13,3.07-9.83,1.57-1.46,1.23-3.44,1.23-5.27,0-18.34,0-36.68,0-55a6.92,6.92,0,0,0-2.41-5.68c-3.55-3.35-1.81-8-2-12.11,0-.7.84-.91,1.56-.91a8.68,8.68,0,0,0,1.53,0c10.7-1.69,18.52.52,22.41,12.43,2.64,8.07,7.95,15.25,12.07,22.83.79,1.47,1.3,3.62,3,3.79,2,.19,2.25-2.18,3.06-3.53,6.09-10.17,12.28-20.28,18-30.63,2.12-3.81,4.63-5.56,8.88-4.9.83.13,1.72-.11,2.54,0,2.69.5,7.06-1.58,7.8,1.16,1.06,3.93,1.85,9-2.2,12.33-1.74,1.45-1.75,3.11-1.75,5q0,27.51,0,55c0,2.42.14,4.7,2.1,6.49,3.25,3,2.13,6.92,2.22,10.57,0,1.91-1.43,2-2.85,2-6.63,0-13.25-.07-19.87,0-2.33,0-2.91-1-2.83-3,.14-3.84-.68-7.88,3.1-10.71,1.38-1,1.1-2.76,1.11-4.27,0-10.87,0-21.74,0-33.26-3.2,2.67-4.54,6.07-6.46,9-2.4,3.69-4.58,7.53-6.94,11.25-3.45,5.45-8.67,5.36-12-.18-4.12-6.93-8.2-13.89-12.3-20.83Zm226.28-40.71c-1.47,0-3.47-.4-3.51,1.83-.05,3.66-1.12,7.66,1.69,10.74a7.45,7.45,0,0,1,1.82,5.56q0,27.78,0,55.57c0,1.9,0,3.95-1.25,5.35-3,3.32-2.06,7.31-2.37,11.11-.18,2.21,1.1,2.45,2.85,2.44,6.46-.05,12.92,0,19.38,0,1.09,0,2.67.38,2.68-1.43,0-3.69,1.18-7.88-1.59-10.79-2.47-2.59-2.56-5.3-2.53-8.36,0-3.91-.05-7.82,0-11.72,0-2.23-.88-5.14,2.84-5.38,3.49-.22,7.09-.12,8.47,3.91a22.13,22.13,0,0,1,.74,6.53c.13,6.12.09,12.24.18,18.35.06,3.72,1.71,6.82,5.12,8.12,4.69,1.79,9.73.53,14.62.71a1.17,1.17,0,0,0,1.19-1.33c-.2-3.48,1.31-7.5-1.34-10.27s-3-5.81-3-9.29c-.1-6.6,1.81-13.77-1-19.64-2.53-5.34-1.83-9.17-.13-14.24,2.37-7.13,1.73-14.87.47-22.19-1.79-10.46-7.91-15.11-18.85-15.52-4.25-.16-8.5,0-12.75,0C360.32,275.12,355.74,275.11,351.15,275.13ZM243.86,367.48c9.42,0,9.57-.21,8.46-9.52a6,6,0,0,0-2-4c-2-1.81-2.68-4.17-3.22-6.71q-7.06-33.23-14.27-66.4c-.82-3.76-3-6-7.07-6-5.26,0-10.52-.05-15.79,0-1,0-2.79-.56-2.81,1.19,0,3.63-1.29,7.67,1.54,10.7,2,2.1,1.82,4,1.29,6.48-3.38,15.53-6.51,31.12-10,46.62-1,4.24-.49,9.31-3.58,12.52-3.48,3.6-3.18,7.55-3.29,11.76-.06,2.33.57,3.38,3.12,3.33,6.1-.14,12.22-.06,18.33,0,1.6,0,3.09.1,3-2.24-.1-3.88.58-8-2.4-11.1-2.54-2.61-1-5.14-.4-7.59.67-2.73,3.27-1.8,5.18-1.9,2.2-.11,4.41-.07,6.62,0a5.17,5.17,0,0,1,4.6,7.67,8.82,8.82,0,0,1-1.19,1.63,12.9,12.9,0,0,0-1.78,12.55c.87,2.42,5.21.62,8,1a28.32,28.32,0,0,0,3.57,0Zm24.76-18.6c0,2.07.05,4.06-1.76,5.56-3.8,3.18-2.05,7.56-2.38,11.47-.11,1.33.84,1.68,2,1.68l21.41,0c.9,0,1.77-.32,1.78-1.38,0-3.86,1.11-8.08-1.89-11.2-2-2.12-2.26-4.35-2.25-6.93.08-16.48,0-33,.25-49.44,0-3-1.6-7.13,1.55-8.9,3.42-1.92,5,2.27,7.29,4,3.23,2.46,9.92,1.3,10-1.58.12-4.41-.07-8.83-.13-13.25,0-2.74-1.5-4-4.18-4-15.12,0-30.24,0-45.37.05-3.62,0-5.6,1.9-5.5,5.75s0,7.48,0,11.22c0,1.47.14,2.93,2,2.86,3.73-.13,8,1.31,10.4-3.22,1-2,3-2.22,4.82-1.87,2.28.42,1.93,2.42,1.93,4.1v28C268.6,330.86,268.58,339.87,268.62,348.88Zm67,18.6c1.47,0,2.89-.13,2.88-2,0-3.82,1-7.91-2.45-11-1.54-1.37-1.81-3.19-1.81-5.11q0-28.27,0-56.55c0-1.75.05-3.53,1.46-4.7,3.57-3,2.74-7,2.89-10.87.07-1.74-.64-2.42-2.38-2.41q-10.44.08-20.89,0c-1.54,0-2.14.65-2,2.14.28,3.93-1.12,8.19,2.79,11.34,1.52,1.22,1.41,3.34,1.41,5.24q0,27.52,0,55a9,9,0,0,1-2.59,6.82c-2.92,3.05-2.11,7.29-1.27,10.66.72,2.9,4.39.94,6.71,1.31a32,32,0,0,0,5.09.06C328.84,367.47,332.23,367.45,335.63,367.48Z" transform="translate(-5.45 -13.89)"/><path class="cls-23" d="M426.75,108.24a8.07,8.07,0,0,1,1.12,1.28c.31.5-.05,1-.54.84a3,3,0,0,1-1.29-1.24C425.83,108.79,425.84,108.22,426.75,108.24Z" transform="translate(-5.45 -13.89)"/><path class="cls-24" d="M66.85,411.69c2.44-.16,2.67.94,2.48,2.48A3.81,3.81,0,0,1,66.85,411.69Z" transform="translate(-5.45 -13.89)"/><path class="cls-1" d="M302.36,180.18c.1,29.36-18.75,51-43.28,53.85-26,3-49.49-13.21-55.35-38.24-2.83-12.12-.61-24,2.73-35.6,5.71-19.9,13.95-38.53,29-53.36a43.2,43.2,0,0,1,6.78-5.32c7-4.56,13.95-4.27,20.92.29,9.82,6.43,16.31,15.75,21.89,25.68C295,145.09,301.43,163.84,302.36,180.18Z" transform="translate(-5.45 -13.89)"/><path class="cls-25" d="M368.32,302.74c0-2.55-.16-5.11.05-7.63.18-2-1.42-5.33,2.66-5.26,3.71.07,8.55-1.14,9.39,4.35a59,59,0,0,1,0,16.74c-.53,3.94-4,5.37-9.65,4.83-4.23-.41-2.16-3.49-2.41-5.41A60.47,60.47,0,0,1,368.32,302.74Z" transform="translate(-5.45 -13.89)"/><path class="cls-6" d="M223.61,302.45c1.44,8.13,2.76,16.28,4.37,24.38.57,2.87-.37,3.51-3,3.41-9.35-.36-8.35,1.6-6.71-7.85,1.16-6.65,2.37-13.29,3.55-19.93A1.08,1.08,0,0,1,223.61,302.45Z" transform="translate(-5.45 -13.89)"/><path class="cls-26" d="M223.61,302.45h-1.78l.68-3.85C224,300.06,223.72,301.28,223.61,302.45Z" transform="translate(-5.45 -13.89)"/><path class="cls-27" d="M332.34,395.24c-2.7-.33-3.85-2.1-3.85-4.56,0-2.85,1.77-4.61,4.48-4.39,2.48.19,3.81,2.39,3.66,4.74A4.26,4.26,0,0,1,332.34,395.24Z" transform="translate(-5.45 -13.89)"/><path class="cls-27" d="M367.62,390.52c-.42,2.37-1.12,4.52-3.82,4.68-2.88.17-4.29-1.66-4.48-4.37-.22-2.91,1.57-4.5,4.18-4.6S367,388.35,367.62,390.52Z" transform="translate(-5.45 -13.89)"/><path class="cls-28" d="M220.59,188.73c-.2-18,14.09-32.49,32.37-32.83,17.62-.32,32.06,14.18,32.51,32.66.42,17-14.44,32-31.9,32.24A32.37,32.37,0,0,1,220.59,188.73Z" transform="translate(-5.45 -13.89)"/></g><text class="cls-29" transform="translate(139.33 384.07)">CUMPLE TU AN<tspan class="cls-30" x="156.06" y="0">T</tspan><tspan x="168.57" y="0">OJO</tspan></text></svg>