<svg id="Capa_1" data-name="Capa 1" xmlns="http://www.w3.org/2000/svg" viewBox="0 0 24.77 23.82"><defs><style>.cls-1{fill:#fbceaa;}.cls-2{fill:#e5bc9b;}.cls-3{fill:#e2ba9a;}.cls-4{fill:#d3af91;}.cls-5{fill:#ecc19f;}.cls-6{fill:#facda9;}.cls-7{fill:#f1c6a3;}.cls-8{fill:#ecc2a0;}.cls-9{fill:#e6bd9c;}.cls-10{fill:#deb797;}.cls-11{fill:#d7b293;}.cls-12{fill:#f9cca8;}.cls-13{fill:#dfb798;}.cls-14{fill:#eac19f;}.cls-15{fill:#e6bd9b;}.cls-16{fill:#dcb596;}.cls-17{fill:#eac09e;}.cls-18{fill:#c09f84;}.cls-19{fill:#b8977f;}.cls-20{fill:#e8be9d;}.cls-21{fill:#121211;}.cls-22,.cls-29{fill:#121212;}.cls-23{fill:#ae927c;}.cls-24{fill:#e2b897;}.cls-25{fill:#fbcea9;}.cls-26{fill:#d8b090;}.cls-27{fill:#f7cba7;}.cls-28{fill:#111;}.cls-29{font-size:1.03px;font-family:ArialRoundedMTBold, Arial Rounded MT Bold;}.cls-30{letter-spacing:-0.01em;}</style></defs><g id="Logo"><path class="cls-1" d="M9.47.74c.62-.12,1.24,0,1.85-.06l.46,0s.13,0,.1.09A3,3,0,0,0,11.1,1a2.11,2.11,0,0,1,.9.19c.19.1.35,0,.5-.14s.06,0,.05,0,0,.17.06.17a5.2,5.2,0,0,1,1.12.13c.19,0,.39,0,.57.07A12.46,12.46,0,0,1,16.19,2a2,2,0,0,0,.78.26,6.57,6.57,0,0,1,1.14.53,1.47,1.47,0,0,0,.4.14c.06,0,.13.06.12-.06l-.05-.06s0-.07.05,0a.32.32,0,0,1,.29.14,2.21,2.21,0,0,0,.64.58,1.68,1.68,0,0,1,.42.42,3.91,3.91,0,0,0,.81.76c.12.1.28.19.25.39s.08.08.15.13c0-.12-.07-.22,0-.32s.13,0,.17.07a.89.89,0,0,0,.23.51c.25.47.52.92.77,1.39a.6.6,0,0,1,0,.2c0,.12,0,.24.19.3s.15.18.19.29a4.51,4.51,0,0,1,.37,1.58.4.4,0,0,0,.07.21.5.5,0,0,1,.07.54c-.08.17,0,.39.12.58s.22.64.17,1,0,.69,0,1a3.59,3.59,0,0,1,.11,1.63c-.06.34-.11.69-.18,1a12.78,12.78,0,0,1-.62,1.9,1.14,1.14,0,0,0-.1.47.47.47,0,0,1-.21.49l0,0c.17.23-.15.35-.13.55a4.39,4.39,0,0,0-.21.61,1.69,1.69,0,0,1-.27.47.48.48,0,0,0-.19.44c0,.52-.05.5-.54.55a1,1,0,0,0-.8.35,18.6,18.6,0,0,0-1.72,1.23,1.8,1.8,0,0,1-.73.58c-.26.15-.51.33-.78.47a9.39,9.39,0,0,1-1,.41,1.48,1.48,0,0,1-.85.22,4.6,4.6,0,0,0-.83.11,5.34,5.34,0,0,0-1.13.19,10.74,10.74,0,0,1-4.11-.21c-.2-.05-.41,0-.6-.1a7.76,7.76,0,0,1-1.09-.37c-.08,0-.17,0-.19-.15.17-.16.36-.07.55-.06.57.16,1.14.3,1.71.4a8.27,8.27,0,0,1,.87.09,1.13,1.13,0,0,0,.32.06c.18,0,.36,0,.54,0a19.4,19.4,0,0,0,2.41-.07,4.14,4.14,0,0,1,.46-.09,14.31,14.31,0,0,1-3.07.16.61.61,0,0,1-.3,0,.53.53,0,0,0-.33-.05l-1.29-.11a.59.59,0,0,1-.34-.1.37.37,0,0,0-.23-.05,8.26,8.26,0,0,1-1.28-.32,3,3,0,0,1-.61-.36,13.12,13.12,0,0,1-1.31-.63c-.3-.21-.53-.5-.81-.74a1,1,0,0,0-.32-.21A1,1,0,0,1,3.87,21c-.08-.09-.21-.05-.31-.1-.11-.26-.34-.36-.55-.52a1.54,1.54,0,0,1-.48-.61.69.69,0,0,0-.21-.31,4,4,0,0,1-1-1.56c-.17-.34-.28-.71-.45-1.06a11.15,11.15,0,0,1-.65-2.41c0-.38-.07-.75-.1-1.13a.2.2,0,0,1,.05-.19c0-.33,0-.66,0-1,0-.18,0-.39.24-.45.08.21,0,.42,0,.63l.17.61v0c-.05.05-.1.1-.12,0,0,.07,0,.12,0,.19a6,6,0,0,0,.12,1s0,0,0,.06,0,0,0,0,0,0,0,0,0-.23-.06-.34,0-.43-.12-.64,0-.21.13-.27l.15,0c.13-.11.07-.25.05-.38h0c.06-.21,0-.43,0-.64v-.26c0-.08,0-.19-.1-.25h0c-.09-.08,0-.2-.07-.29A.9.9,0,0,0,.53,11a.4.4,0,0,1-.24-.49,2.17,2.17,0,0,0,0-.36A2.17,2.17,0,0,1,.59,8.86a.25.25,0,0,0,0-.17c0-.22.08-.29.26-.33s.29,0,.24.26a.75.75,0,0,0,0,.57.21.21,0,0,0,.18.13c.06,0,.08-.06.09-.11A12.84,12.84,0,0,1,2.73,6.45a.34.34,0,0,1-.09-.15.38.38,0,0,0-.3.22c-.18.31-.5.5-.68.8,0,.06-.06,0-.1,0s-.09-.08-.05-.16a7.05,7.05,0,0,1,.3-.76A.74.74,0,0,0,2,6.1C2,6,2.1,6,2.17,6a1.59,1.59,0,0,0,.69-1A.1.1,0,0,1,2.93,5a.16.16,0,0,0,.15-.09c.41-.29.62-.77,1-1a1.18,1.18,0,0,0,.13-.18l0,0c.11-.16.33-.05.46-.16s0,0,.06,0c.23,0,.3-.28.49-.4a4.27,4.27,0,0,0,.79-.48c.45-.19.87-.46,1.34-.62A4.25,4.25,0,0,1,8,1.69a1.27,1.27,0,0,0-.38.15s-.1,0-.12,0a.23.23,0,0,1,.14-.19c.06-.09.18-.09.26-.16-.12,0-.25.05-.36,0s.06-.08.1-.11A4.11,4.11,0,0,1,8.7,1,1.36,1.36,0,0,0,9.47.74Z" transform="translate(-0.12 -0.54)"/><path class="cls-2" d="M2.21,6.83c0,.19-.1.26-.16.37A.48.48,0,0,1,2.21,6.83Z" transform="translate(-0.12 -0.54)"/><path class="cls-1" d="M23.85,14.42a1,1,0,0,1,.15-.67c.06.15-.08.37.09.38s.05-.22.11-.31c.24-.35,0-.86.39-1.17l.14.48c-.06,0-.13.1,0,.14.27.09.18.31.14.46a4.21,4.21,0,0,0-.11.6.7.7,0,0,1-.06.19c0,.07-.3.14,0,.22,0,0,0,.14,0,.18s-.11.27-.12.42c-.11.52-.37,1-.51,1.5a1.6,1.6,0,0,1-.53.84s-.06.05-.09,0a.14.14,0,0,1,0-.09c0-.08.1-.2,0-.25s-.19.05-.26.14l-.06,0a.07.07,0,0,1,0-.09c.34-.65.44-1.4.73-2.07A3.26,3.26,0,0,0,23.85,14.42Z" transform="translate(-0.12 -0.54)"/><path class="cls-3" d="M18.19,2.5l-.43-.33a.52.52,0,0,1,.51.32A.08.08,0,0,1,18.19,2.5Z" transform="translate(-0.12 -0.54)"/><path class="cls-4" d="M17.4,2a.28.28,0,0,1,.31.15A.48.48,0,0,1,17.4,2Z" transform="translate(-0.12 -0.54)"/><path class="cls-5" d="M18.42,2.6l-.06,0-.17-.15h.08Z" transform="translate(-0.12 -0.54)"/><path class="cls-6" d="M2.94,5l0,0c-.09.17-.18.34-.42.32A1.35,1.35,0,0,1,3,4.59a.68.68,0,0,0,.26-.34l.56-.38c.13.1,0,.18,0,.26a3.06,3.06,0,0,1-.66.73A.31.31,0,0,1,2.94,5Z" transform="translate(-0.12 -0.54)"/><path class="cls-7" d="M2.43,5.43c0,.19-.19.32-.26.5,0,0-.09-.07-.08-.08S2.19,5.47,2.43,5.43Z" transform="translate(-0.12 -0.54)"/><path class="cls-8" d="M4.28,3.36l0,.11A.33.33,0,0,1,4,3.7c-.09,0-.11-.06-.07-.14A.41.41,0,0,1,4.28,3.36Z" transform="translate(-0.12 -0.54)"/><path class="cls-9" d="M5,2.92c-.09.14-.24.13-.38.14a.38.38,0,0,1,.31-.22C5,2.83,5,2.85,5,2.92Z" transform="translate(-0.12 -0.54)"/><path class="cls-10" d="M5,2.92l-.07-.08,0-.09s.09-.09.12,0S5,2.86,5,2.92Z" transform="translate(-0.12 -0.54)"/><path class="cls-11" d="M13.44.73c-.33,0-.69.06-1-.19l1.2.14C13.59.75,13.5.69,13.44.73Z" transform="translate(-0.12 -0.54)"/><path class="cls-12" d="M13.44.73c.06-.06.14,0,.21,0s.18,0,.23.08h0Z" transform="translate(-0.12 -0.54)"/><path class="cls-13" d="M13.88.76a.3.3,0,0,1,.29.05c-.12.09-.2,0-.28-.06Z" transform="translate(-0.12 -0.54)"/><path class="cls-14" d="M12.72,1c.07,0,.1.07.13.14s-.13-.06-.19-.09S12.67,1,12.72,1Z" transform="translate(-0.12 -0.54)"/><path class="cls-15" d="M13.36,1.15s0,0-.07.05a0,0,0,0,1-.06-.06.07.07,0,0,1,0,0S13.35,1.09,13.36,1.15Z" transform="translate(-0.12 -0.54)"/><path class="cls-16" d="M15.8,1.36a.44.44,0,0,1,.41.12.33.33,0,0,1-.41-.12Z" transform="translate(-0.12 -0.54)"/><path class="cls-3" d="M15.27,1.16c0,.05,0,.05-.07.05a.07.07,0,0,1-.08-.08s0-.06.06,0S15.27,1.11,15.27,1.16Z" transform="translate(-0.12 -0.54)"/><path class="cls-17" d="M24.33,12.56c-.17-.11,0-.25,0-.37l.09,0a0,0,0,0,1,0,.07C24.34,12.33,24.43,12.46,24.33,12.56Z" transform="translate(-0.12 -0.54)"/><path class="cls-18" d="M7,1.61c-.06.08-.14.07-.23.06C6.87,1.58,7,1.62,7,1.61Z" transform="translate(-0.12 -0.54)"/><path class="cls-19" d="M6.5,1.83s0,0-.07.06-.06,0-.06,0,0-.06.07-.08A0,0,0,0,1,6.5,1.83Z" transform="translate(-0.12 -0.54)"/><path class="cls-20" d="M4.08,3.67c.07,0,.1-.12.2-.1a0,0,0,0,1,0,.05h0C4.23,3.68,4.19,3.83,4.08,3.67Z" transform="translate(-0.12 -0.54)"/><path class="cls-21" d="M9.56,9.15A6.77,6.77,0,0,1,11.25,5a1.56,1.56,0,0,1,2.6,0,6.23,6.23,0,0,1,1.71,4.36,3,3,0,0,1-2.73,2.83A3,3,0,0,1,9.59,9.58C9.57,9.44,9.57,9.29,9.56,9.15Z" transform="translate(-0.12 -0.54)"/><path class="cls-22" d="M6.14,15.76c0,.56,0,1.11,0,1.67a.4.4,0,0,0,.1.28.36.36,0,0,1,.11.2c.07.4,0,.45-.37.45H5.25c-.15,0-.19-.05-.19-.19a.61.61,0,0,1,.16-.5.35.35,0,0,0,.06-.27V14.64a.36.36,0,0,0-.12-.29c-.18-.16-.09-.4-.1-.61,0,0,0,0,.08,0h.07a.86.86,0,0,1,1.13.62A8.44,8.44,0,0,0,7,15.47c0,.08.07.19.16.2s.11-.11.15-.18c.31-.52.62-1,.91-1.55a.39.39,0,0,1,.45-.24h.12c.14,0,.36-.08.4.06a.58.58,0,0,1-.11.62.27.27,0,0,0-.09.25V17.4a.41.41,0,0,0,.11.33c.16.15.1.35.11.53s-.08.1-.15.1H8c-.12,0-.15-.05-.14-.16s0-.39.16-.54.05-.14.05-.21V15.78a1.79,1.79,0,0,0-.32.45c-.13.19-.24.38-.35.57a.33.33,0,0,1-.61,0l-.62-1Zm11.4-2c-.07,0-.17,0-.18.09s-.05.39.09.54a.38.38,0,0,1,.09.28v2.8a.4.4,0,0,1-.06.27c-.15.17-.11.37-.12.56s.05.13.14.13h1c.05,0,.13,0,.13-.08s.06-.39-.08-.54a.55.55,0,0,1-.12-.42c0-.2,0-.4,0-.59s-.05-.26.14-.27.36,0,.43.19A1.86,1.86,0,0,1,19,17v.93a.44.44,0,0,0,.26.41,2.29,2.29,0,0,0,.74,0,.06.06,0,0,0,.06-.06c0-.18.07-.38-.07-.52a.63.63,0,0,1-.15-.47,2.51,2.51,0,0,0-.05-1,.86.86,0,0,1,0-.72,2.36,2.36,0,0,0,0-1.12.87.87,0,0,0-.95-.78c-.22,0-.43,0-.64,0Zm-5.41,4.65c.48,0,.49,0,.43-.48a.27.27,0,0,0-.1-.19.67.67,0,0,1-.16-.34L11.58,14a.34.34,0,0,0-.36-.3h-.79c-.06,0-.14,0-.14.06s-.07.39.07.54a.32.32,0,0,1,.07.32c-.17.79-.33,1.57-.51,2.35-.05.22,0,.47-.18.64a.76.76,0,0,0-.16.59c0,.12,0,.17.15.17h.93c.08,0,.15,0,.15-.11a.74.74,0,0,0-.12-.56c-.13-.13,0-.26,0-.38s.16-.09.26-.1h.33a.27.27,0,0,1,.24.39l-.06.08a.63.63,0,0,0-.09.63c0,.13.26,0,.4.05a1.08,1.08,0,0,0,.18,0Zm1.25-.93a.33.33,0,0,1-.09.28c-.19.16-.1.38-.12.58s.05.08.1.08h1.08c.05,0,.09,0,.09-.07s.06-.41-.09-.57a.4.4,0,0,1-.12-.34c0-.84,0-1.67,0-2.5,0-.15-.08-.36.07-.44s.26.11.37.2.5.06.51-.08,0-.45,0-.67-.08-.2-.21-.2H12.69a.26.26,0,0,0-.28.29c0,.19,0,.38,0,.57s0,.14.1.14.4.07.52-.16a.21.21,0,0,1,.24-.1c.12,0,.1.13.1.21v2.78Zm3.38.93c.07,0,.15,0,.14-.1s.05-.39-.12-.55a.31.31,0,0,1-.09-.26V14.6c0-.09,0-.18.07-.23s.14-.36.15-.55,0-.12-.12-.12h-1c-.08,0-.11,0-.11.1s-.05.42.14.58a.27.27,0,0,1,.07.26c0,.93,0,1.85,0,2.77a.46.46,0,0,1-.14.35.58.58,0,0,0-.06.54c0,.14.22,0,.34.06a1.13,1.13,0,0,0,.26,0Z" transform="translate(-0.12 -0.54)"/><path class="cls-23" d="M21.35,5.3l.06.06s0,0,0,0a.12.12,0,0,1-.06-.06S21.31,5.3,21.35,5.3Z" transform="translate(-0.12 -0.54)"/><path class="cls-24" d="M3.21,20.59c.12,0,.14.05.13.13A.19.19,0,0,1,3.21,20.59Z" transform="translate(-0.12 -0.54)"/><path class="cls-1" d="M15.08,8.92a2.57,2.57,0,0,1-2.18,2.72,2.54,2.54,0,0,1-2.79-1.93,3.51,3.51,0,0,1,.14-1.79,5.86,5.86,0,0,1,1.46-2.69A2.24,2.24,0,0,1,12.05,5a.9.9,0,0,1,1.06,0,3.63,3.63,0,0,1,1.1,1.3A6.26,6.26,0,0,1,15.08,8.92Z" transform="translate(-0.12 -0.54)"/><path class="cls-25" d="M18.41,15.1c0-.13,0-.26,0-.38s-.07-.27.13-.27.43-.06.48.22a3,3,0,0,1,0,.84c0,.2-.2.28-.49.25s-.11-.18-.12-.27A2.54,2.54,0,0,1,18.41,15.1Z" transform="translate(-0.12 -0.54)"/><path class="cls-6" d="M11.11,15.09c.08.41.14.82.22,1.23,0,.14,0,.17-.15.17-.47,0-.42.08-.34-.4l.18-1A.06.06,0,0,1,11.11,15.09Z" transform="translate(-0.12 -0.54)"/><path class="cls-26" d="M11.11,15.09H11l0-.2A.2.2,0,0,1,11.11,15.09Z" transform="translate(-0.12 -0.54)"/><path class="cls-27" d="M16.59,19.76a.2.2,0,0,1-.19-.23.2.2,0,0,1,.23-.22.21.21,0,0,1,.18.24A.21.21,0,0,1,16.59,19.76Z" transform="translate(-0.12 -0.54)"/><path class="cls-27" d="M18.37,19.53c0,.12-.05.22-.19.23s-.22-.08-.23-.22a.2.2,0,0,1,.21-.23C18.3,19.3,18.34,19.42,18.37,19.53Z" transform="translate(-0.12 -0.54)"/><path class="cls-28" d="M11,9.35A1.64,1.64,0,1,1,12.62,11,1.64,1.64,0,0,1,11,9.35Z" transform="translate(-0.12 -0.54)"/></g><text class="cls-29" transform="translate(7.02 19.36)">CUMPLE TU AN<tspan class="cls-30" x="7.87" y="0">T</tspan><tspan x="8.5" y="0">OJO</tspan></text></svg>